<svg xmlns="http://www.w3.org/2000/svg" viewBox="0 0 464.06 98.81"><defs><style>.cls-1,.cls-5{fill:#695643;}.cls-2{fill:#98ad4e;}.cls-2,.cls-5{stroke:#695643;stroke-miterlimit:10;stroke-width:4px;}.cls-3{fill:#f3fbd2;}.cls-4{fill:#393939;}</style></defs><title>资源 4</title><g id="图层_2" data-name="图层 2"><g id="图层_1-2" data-name="图层 1"><path class="cls-1" d="M150.21,31.32V47.4l18.24-19a16.8,16.8,0,0,1,2.24-2,4.15,4.15,0,0,1,2.46-.66,4.51,4.51,0,0,1,3.24,1.17,3.79,3.79,0,0,1,1.24,2.86,5.7,5.7,0,0,1-2.1,4l-11.29,10.7,13,18.64a23.29,23.29,0,0,1,2.06,3.39,6.6,6.6,0,0,1,.69,2.83,3.53,3.53,0,0,1-1.2,2.66,4.6,4.6,0,0,1-3.27,1.13,5.51,5.51,0,0,1-3.16-.83,7.13,7.13,0,0,1-2.06-2.21q-.84-1.38-1.5-2.5l-11-16.89L150.21,58v9.48a6,6,0,0,1-1.31,4.27,4.44,4.44,0,0,1-3.38,1.39,4.54,4.54,0,0,1-2.28-.63,4.37,4.37,0,0,1-1.69-1.69,5.47,5.47,0,0,1-.53-2q-.09-1.16-.09-3.35V31.32a6.24,6.24,0,0,1,1.24-4.22,4.25,4.25,0,0,1,3.36-1.41,4.43,4.43,0,0,1,3.39,1.39A6,6,0,0,1,150.21,31.32Z"/><path class="cls-1" d="M198.41,34.42a4.5,4.5,0,0,1-3-1.09,3.87,3.87,0,0,1-1.27-3.1,3.85,3.85,0,0,1,1.3-3,4.36,4.36,0,0,1,3-1.17,4.48,4.48,0,0,1,2.94,1.06,3.79,3.79,0,0,1,1.28,3.1,3.91,3.91,0,0,1-1.25,3.08A4.33,4.33,0,0,1,198.41,34.42Zm4.22,8.82V67.92a5.51,5.51,0,0,1-1.22,3.88,4,4,0,0,1-3.1,1.31,3.86,3.86,0,0,1-3-1.35,5.67,5.67,0,0,1-1.17-3.85V43.49a5.48,5.48,0,0,1,1.17-3.82,3.94,3.94,0,0,1,3-1.28,4.09,4.09,0,0,1,3.1,1.28A5,5,0,0,1,202.63,43.24Z"/><path class="cls-1" d="M223.17,43.71l5.57,19.08,5.07-17.74q.81-2.78,1.2-3.8a5,5,0,0,1,1.47-1.94,4.41,4.41,0,0,1,3-.92,4.46,4.46,0,0,1,3,.92,5.27,5.27,0,0,1,1.52,2q.44,1.08,1.22,3.74l5.07,17.74,5.63-19.08q.56-2.07.91-3a4,4,0,0,1,1.16-1.63,3.48,3.48,0,0,1,2.35-.7,3.75,3.75,0,0,1,2.66,1.06,3.33,3.33,0,0,1,1.13,2.5,13,13,0,0,1-1,4l-7,20.46q-.91,2.6-1.41,3.75a5.6,5.6,0,0,1-1.58,2.06,5.27,5.27,0,0,1-6-.06,5.84,5.84,0,0,1-1.64-2.38q-.53-1.41-1.16-3.66l-4.88-16.64-4.72,16.64a20.41,20.41,0,0,1-2,5.24,4.16,4.16,0,0,1-3.85,1.77,4.86,4.86,0,0,1-2.39-.55A4.61,4.61,0,0,1,224.8,71a11.75,11.75,0,0,1-1.16-2.41q-.5-1.39-.78-2.21l-6.91-20.46a14.51,14.51,0,0,1-1-4,3.41,3.41,0,0,1,1.1-2.47,3.66,3.66,0,0,1,2.69-1.09,3.13,3.13,0,0,1,2.88,1.2A17.87,17.87,0,0,1,223.17,43.71Z"/><path class="cls-1" d="M280.66,34.42a4.5,4.5,0,0,1-3-1.09,3.87,3.87,0,0,1-1.27-3.1,3.85,3.85,0,0,1,1.3-3,4.36,4.36,0,0,1,3-1.17,4.48,4.48,0,0,1,2.94,1.06,3.79,3.79,0,0,1,1.28,3.1,3.91,3.91,0,0,1-1.25,3.08A4.33,4.33,0,0,1,280.66,34.42Zm4.22,8.82V67.92a5.51,5.51,0,0,1-1.22,3.88,4,4,0,0,1-3.1,1.31,3.86,3.86,0,0,1-3-1.35,5.67,5.67,0,0,1-1.17-3.85V43.49a5.48,5.48,0,0,1,1.17-3.82,3.94,3.94,0,0,1,3-1.28,4.09,4.09,0,0,1,3.1,1.28A5,5,0,0,1,284.88,43.24Z"/><path class="cls-1" d="M328.11,33.64h-18.3V45.37h15.3a4.59,4.59,0,0,1,3.17,1,3.28,3.28,0,0,1,1,2.55,3.21,3.21,0,0,1-1.06,2.53,4.65,4.65,0,0,1-3.16.94h-15.3V67.45a6.08,6.08,0,0,1-1.3,4.27,4.7,4.7,0,0,1-6.69,0,6.09,6.09,0,0,1-1.3-4.25V32.17a7.73,7.73,0,0,1,.59-3.27A3.69,3.69,0,0,1,303,27.05a7.82,7.82,0,0,1,3.24-.58h21.9a4.77,4.77,0,0,1,3.3,1A3.33,3.33,0,0,1,332.49,30a3.37,3.37,0,0,1-1.08,2.61A4.77,4.77,0,0,1,328.11,33.64Z"/><path class="cls-1" d="M351.25,60.79v7.13A5.5,5.5,0,0,1,350,71.82a4.07,4.07,0,0,1-3.1,1.3,3.91,3.91,0,0,1-3-1.31,5.6,5.6,0,0,1-1.19-3.88V44.15q0-5.76,4.16-5.76a3.48,3.48,0,0,1,3.07,1.35,7.43,7.43,0,0,1,1,4,14.93,14.93,0,0,1,3.14-4,6.49,6.49,0,0,1,4.3-1.35,11,11,0,0,1,5.22,1.35q2.53,1.34,2.53,3.57a3.39,3.39,0,0,1-1.08,2.58,3.35,3.35,0,0,1-2.33,1,10.76,10.76,0,0,1-2.27-.58,10.55,10.55,0,0,0-3.17-.58,4.64,4.64,0,0,0-3.07,1,6.31,6.31,0,0,0-1.85,2.92,20.46,20.46,0,0,0-.91,4.61Q351.25,56.94,351.25,60.79Z"/><path class="cls-1" d="M397.82,68.3V67.2a19,19,0,0,1-3.22,3.25,11.85,11.85,0,0,1-3.69,2,15,15,0,0,1-4.57.64,11.8,11.8,0,0,1-5.55-1.28,9.36,9.36,0,0,1-3.8-3.53q-1.6-2.72-1.6-7.82V43.49a5.52,5.52,0,0,1,1.16-3.83,4,4,0,0,1,3.07-1.27,4.06,4.06,0,0,1,3.13,1.28,5.43,5.43,0,0,1,1.19,3.82V57.16a21.08,21.08,0,0,0,.5,5,6,6,0,0,0,1.8,3.16,5.14,5.14,0,0,0,3.52,1.14,7.16,7.16,0,0,0,4.07-1.28,7.48,7.48,0,0,0,2.78-3.35q.72-1.81.72-7.95V43.49a5.43,5.43,0,0,1,1.19-3.82,4,4,0,0,1,3.1-1.28,4,4,0,0,1,3.07,1.27,5.52,5.52,0,0,1,1.16,3.83V68.23a5.28,5.28,0,0,1-1.11,3.66,4,4,0,0,1-5.75,0A5.12,5.12,0,0,1,397.82,68.3Z"/><path class="cls-1" d="M425.06,34.42a4.5,4.5,0,0,1-3-1.09,3.87,3.87,0,0,1-1.27-3.1,3.85,3.85,0,0,1,1.3-3,4.36,4.36,0,0,1,3-1.17A4.48,4.48,0,0,1,428,27.13a3.79,3.79,0,0,1,1.28,3.1A3.91,3.91,0,0,1,428,33.31,4.33,4.33,0,0,1,425.06,34.42Zm4.22,8.82V67.92a5.51,5.51,0,0,1-1.22,3.88,4,4,0,0,1-3.1,1.31,3.86,3.86,0,0,1-3-1.35,5.67,5.67,0,0,1-1.17-3.85V43.49a5.48,5.48,0,0,1,1.17-3.82,3.94,3.94,0,0,1,3-1.28,4.09,4.09,0,0,1,3.1,1.28A5,5,0,0,1,429.28,43.24Z"/><path class="cls-1" d="M445,39.14h.94V34q0-2.07.11-3.24a4.76,4.76,0,0,1,.61-2,3.84,3.84,0,0,1,1.44-1.42,4.09,4.09,0,0,1,2.1-.55A4.22,4.22,0,0,1,453.11,28a3.61,3.61,0,0,1,1.11,2,18.06,18.06,0,0,1,.23,3.33v5.82h3.13a4,4,0,0,1,2.77.86,2.84,2.84,0,0,1,1,2.21,2.47,2.47,0,0,1-1.36,2.41,8.83,8.83,0,0,1-3.89.69h-1.6V61a25.5,25.5,0,0,0,.14,3.08,3.15,3.15,0,0,0,.75,1.75,2.57,2.57,0,0,0,2,.67,10.58,10.58,0,0,0,2-.27,10.6,10.6,0,0,1,2-.27,2.57,2.57,0,0,1,1.86.83,2.78,2.78,0,0,1,.83,2A3.43,3.43,0,0,1,461.81,72a15.23,15.23,0,0,1-6.48,1.09,11.19,11.19,0,0,1-6.07-1.35A6.24,6.24,0,0,1,446.56,68a25.29,25.29,0,0,1-.64-6.35V45.31h-1.13a4.06,4.06,0,0,1-2.82-.88,2.86,2.86,0,0,1-1-2.22A2.76,2.76,0,0,1,442,40,4.46,4.46,0,0,1,445,39.14Z"/><circle class="cls-2" cx="49.4" cy="49.4" r="47.4"/><circle class="cls-3" cx="49.4" cy="49.4" r="13.6"/><rect class="cls-4" x="58.83" y="25.78" width="2.97" height="9.47" rx="1.38" ry="1.38" transform="translate(23.34 -26.07) rotate(30)"/><rect class="cls-4" x="37.01" y="63.56" width="2.97" height="9.47" rx="1.38" ry="1.38" transform="translate(39.31 -10.1) rotate(30)"/><rect class="cls-4" x="29.03" y="33.76" width="2.97" height="9.47" rx="1.38" ry="1.38" transform="translate(-18.08 45.67) rotate(-60)"/><rect class="cls-4" x="66.81" y="55.58" width="2.97" height="9.47" rx="1.38" ry="1.38" transform="translate(-18.08 89.3) rotate(-60)"/><rect class="cls-4" x="66.81" y="33.76" width="2.97" height="9.47" rx="1.38" ry="1.38" transform="translate(67.49 -39.9) rotate(60)"/><rect class="cls-4" x="29.03" y="55.58" width="2.97" height="9.47" rx="1.38" ry="1.38" transform="translate(67.49 3.73) rotate(60)"/><rect class="cls-4" x="37.01" y="25.78" width="2.97" height="9.47" rx="1.38" ry="1.38" transform="translate(-10.1 23.34) rotate(-30)"/><rect class="cls-4" x="58.83" y="63.56" width="2.97" height="9.47" rx="1.38" ry="1.38" transform="translate(-26.07 39.31) rotate(-30)"/><rect class="cls-4" x="47.92" y="22.85" width="2.97" height="9.47" rx="1.38" ry="1.38"/><rect class="cls-4" x="47.92" y="66.49" width="2.97" height="9.47" rx="1.38" ry="1.38"/><rect class="cls-4" x="26.1" y="44.67" width="2.97" height="9.47" rx="1.38" ry="1.38" transform="translate(-21.82 76.99) rotate(-90)"/><rect class="cls-4" x="69.74" y="44.67" width="2.97" height="9.47" rx="1.38" ry="1.38" transform="translate(21.82 120.62) rotate(-90)"/><path class="cls-5" d="M82.92,82.92a47.4,47.4,0,0,1-67-67"/></g></g></svg>