<svg xmlns="http://www.w3.org/2000/svg" viewBox="0 0 98.81 98.81"><defs><style>.cls-1{fill:#98ad4e;}.cls-1,.cls-4{stroke:#695643;stroke-miterlimit:10;stroke-width:4px;}.cls-2{fill:#f3fbd2;}.cls-3{fill:#393939;}.cls-4{fill:#695643;}</style></defs><title>资源 2</title><g id="图层_2" data-name="图层 2"><g id="图层_1-2" data-name="图层 1"><circle class="cls-1" cx="49.4" cy="49.4" r="47.4"/><circle class="cls-2" cx="49.4" cy="49.4" r="13.6"/><rect class="cls-3" x="58.83" y="25.78" width="2.97" height="9.47" rx="1.38" ry="1.38" transform="translate(23.34 -26.07) rotate(30)"/><rect class="cls-3" x="37.01" y="63.56" width="2.97" height="9.47" rx="1.38" ry="1.38" transform="translate(39.31 -10.1) rotate(30)"/><rect class="cls-3" x="29.03" y="33.76" width="2.97" height="9.47" rx="1.38" ry="1.38" transform="translate(-18.08 45.67) rotate(-60)"/><rect class="cls-3" x="66.81" y="55.58" width="2.97" height="9.47" rx="1.38" ry="1.38" transform="translate(-18.08 89.3) rotate(-60)"/><rect class="cls-3" x="66.81" y="33.76" width="2.97" height="9.47" rx="1.38" ry="1.38" transform="translate(67.49 -39.9) rotate(60)"/><rect class="cls-3" x="29.03" y="55.58" width="2.97" height="9.47" rx="1.38" ry="1.38" transform="translate(67.49 3.73) rotate(60)"/><rect class="cls-3" x="37.01" y="25.78" width="2.97" height="9.47" rx="1.38" ry="1.38" transform="translate(-10.1 23.34) rotate(-30)"/><rect class="cls-3" x="58.83" y="63.56" width="2.97" height="9.47" rx="1.38" ry="1.38" transform="translate(-26.07 39.31) rotate(-30)"/><rect class="cls-3" x="47.92" y="22.85" width="2.97" height="9.47" rx="1.38" ry="1.38"/><rect class="cls-3" x="47.92" y="66.49" width="2.97" height="9.47" rx="1.38" ry="1.38"/><rect class="cls-3" x="26.1" y="44.67" width="2.97" height="9.47" rx="1.38" ry="1.38" transform="translate(-21.82 76.99) rotate(-90)"/><rect class="cls-3" x="69.74" y="44.67" width="2.97" height="9.47" rx="1.38" ry="1.38" transform="translate(21.82 120.62) rotate(-90)"/><path class="cls-4" d="M82.92,82.92a47.4,47.4,0,0,1-67-67"/></g></g></svg>